<svg xmlns="http://www.w3.org/2000/svg" xmlns:xlink="http://www.w3.org/1999/xlink" version="1.1" x="0px" y="0px" viewBox="0 0 100 125" enable-background="new 0 0 100 100" xml:space="preserve"><g display="none"><polyline display="inline" fill-rule="evenodd" clip-rule="evenodd" fill="#000000" stroke="#2A26FF" stroke-width="10" stroke-miterlimit="10" points="   85.091,11.092 83,35 59.091,32.908  "/><polyline display="inline" fill="#000000" stroke="#2A26FF" stroke-width="10" stroke-miterlimit="10" points="40.909,67.092 17,65    14.909,88.908  "/><path display="inline" fill="#000000" stroke="#2A26FF" stroke-width="10" stroke-miterlimit="10" d="M15.221,40.681   c3.229-12.003,12.592-22.006,25.462-25.454c16.696-4.474,33.797,3.557,41.361,18.35"/><path display="inline" fill="#000000" stroke="#2A26FF" stroke-width="10" stroke-miterlimit="10" d="M84.778,59.32   c-3.228,12.003-12.591,22.005-25.461,25.453c-16.696,4.474-33.797-3.557-41.361-18.35"/></g><g><path d="M20.049,41.979l-9.657-2.598c3.793-14.103,14.904-25.209,28.997-28.985c14.446-3.869,29.647,0.601,39.797,10.827   l0.663-7.579c0.144-1.644,1.606-2.871,3.25-2.727l3.984,0.348c1.644,0.145,2.871,1.606,2.728,3.25l-2.179,24.905   c-0.048,0.548-0.535,0.957-1.083,0.909l-24.905-2.179c-1.644-0.144-2.871-1.606-2.728-3.25l0.349-3.986   c0.144-1.644,1.606-2.87,3.25-2.727l10.369,0.907c-7.658-8.335-19.589-12.073-30.908-9.039   C31.321,22.911,22.918,31.312,20.049,41.979z M58.023,79.943c-11.319,3.035-23.25-0.704-30.908-9.039l10.369,0.907   c1.644,0.144,3.106-1.083,3.25-2.727l0.349-3.986c0.144-1.644-1.083-3.106-2.728-3.25L13.451,59.67   c-0.548-0.048-1.035,0.361-1.083,0.909l-2.179,24.905c-0.144,1.644,1.083,3.105,2.728,3.25l3.984,0.348   c1.644,0.145,3.106-1.083,3.25-2.727l0.666-7.604c7.704,7.768,18.307,12.232,29.296,12.232c3.489,0,7.017-0.448,10.499-1.381   c14.093-3.776,25.204-14.883,28.996-28.984l-9.657-2.598C77.082,68.688,68.68,77.089,58.023,79.943z"/></g><g display="none"><polyline display="inline" fill="#000000" stroke="#E00C02" stroke-width="4" stroke-miterlimit="10" points="84.83,13.08 83,34    62.08,32.17  "/><polyline display="inline" fill="#000000" stroke="#E00C02" stroke-width="4" stroke-miterlimit="10" points="37.92,67.83 17,66    15.17,86.92  "/><path display="inline" fill="#000000" stroke="#E00C02" stroke-width="4" stroke-miterlimit="10" d="M15.221,40.681   c3.229-12.003,12.592-22.006,25.462-25.454c16.696-4.474,33.797,3.557,41.361,18.35"/><path display="inline" fill="#000000" stroke="#E00C02" stroke-width="4" stroke-miterlimit="10" d="M84.778,59.32   c-3.228,12.003-12.591,22.005-25.461,25.453c-16.696,4.474-33.797-3.557-41.361-18.35"/></g><g display="none"><path display="inline" d="M17.152,41.201l-3.862-1.039c3.515-13.07,13.813-23.367,26.875-26.867   c15.69-4.207,32.343,2.209,41.293,15.385l1.38-15.773l3.984,0.348l-2.004,22.914l-22.912-2.006l0.348-3.984l16.345,1.43   C70.712,19.359,55.512,13.326,41.2,17.158C29.513,20.291,20.299,29.504,17.152,41.201z M58.8,82.842   C44.49,86.676,29.289,80.645,21.4,68.393l16.346,1.43l0.348-3.984l-22.912-2.004l-2.004,22.912l3.984,0.348l1.382-15.795   c7.107,10.475,19.067,16.688,31.559,16.688c3.235,0,6.504-0.416,9.732-1.281c13.062-3.498,23.359-13.793,26.874-26.865   l-3.861-1.039C79.701,70.5,70.486,79.711,58.8,82.842z"/></g></svg>